<svg width="833" height="800" viewBox="0 0 833 800" fill="none" xmlns="http://www.w3.org/2000/svg">
<rect width="833" height="800" fill="#743760"/>
<path d="M357.332 625.246C360.981 624.629 365.063 623.402 368.535 621.742C417.493 597.371 412.016 492.133 407.445 436.607C425.913 419.005 444.823 404.009 461.399 394.233C462.786 392.926 463.652 391.707 463.388 390.143C463.035 388.058 461.118 386.238 458.512 386.679L457.036 387.465C441.503 397.064 423.981 410.753 406.811 426.527C403.419 390.64 396.875 345.636 391.583 314.36C388.23 294.553 385.327 280.567 384.542 279.091C381.566 271.016 373.218 269.211 365.399 270.535C355.584 272.732 346.73 277.447 348.583 288.394C353.715 359.91 348.134 491.684 286.898 506.873C267.611 510.137 251.797 476.888 245.759 460.216C241.733 449.101 239.271 437.722 237.242 425.733C223.216 342.853 256.04 226.308 290.258 216.228L295.904 214.736C307.371 212.795 320.411 213.806 323.827 224.488C324.445 228.136 314.196 230.943 315.086 239.371C315.968 244.584 321.277 247.439 326.056 247.166C333.354 245.931 334.99 239.756 333.835 229.764C330.395 209.435 314.388 203.565 293.017 207.182C218.397 222.491 188.966 340.07 204.138 429.727C213.224 483.416 238.702 523.072 280.402 516.015C286.136 515.045 292.303 513.465 298.815 510.754C351.253 487.939 358.11 379.542 358.062 325.395L365.897 365.355C370.837 394.546 374.654 426.607 377.076 456.76C335.471 502.406 305.174 551.5 311.173 586.946C315.407 611.966 335.96 628.863 357.332 625.246ZM344.445 615.631C342.881 615.896 341.229 615.639 339.577 615.383C328.005 610.37 321.806 599.087 319.689 586.577C317.925 576.152 319.112 564.155 321.959 555.63C330.756 528.405 352.665 496.279 377.885 467.883C380.331 507.683 383.01 571.036 357.284 605.952C353.298 610.916 349.136 614.837 344.445 615.631Z" fill="#C5AE66"/>
<path d="M571.11 505.96C574.238 505.43 577.277 504.38 580.228 502.808C602.971 491.453 618.633 393.897 627.51 363.977C627.855 362.846 627.679 361.804 627.679 361.804C627.238 359.198 624.455 358.596 623.413 358.773C621.849 359.037 620.895 359.735 620.117 361.475C611.841 388.613 595.136 486.344 576.908 495.863C575.866 496.04 573.596 492.134 572.105 486.489C569.916 479.889 567.895 471.116 566.219 461.212C558.632 416.384 555.85 346.078 555.216 335.998L555.384 333.824C553.885 324.963 545.36 322.116 537.541 323.439C530.244 324.674 523.564 329.558 522.97 335.557L522.561 345.813C516.635 339.31 507.148 333.945 498.543 333.792L491.679 334.418C460.403 339.711 453.747 389.094 455.816 417.161L457.5 430.281C461.47 453.738 472.489 480.827 496.466 476.769L500.548 475.542C514.791 470.987 521.294 430.209 525.817 396.736C526.884 406.207 528.311 420.979 530.958 436.616C535.986 466.328 544.671 498.638 558.504 504.34C562.594 506.329 566.94 506.665 571.11 505.96ZM498.271 468.421L496.619 468.164C495.223 466.256 493.908 461.653 492.938 455.919C487.645 424.643 489.457 349.807 499.345 341.699C504.301 342.469 508.391 344.458 512.569 346.968C516.836 349.999 520.236 354.25 522.682 359.198C519.859 377.369 512.345 466.039 498.271 468.421Z" fill="#C5AE66"/>
</svg>
